<?xml version="1.0" encoding="utf-8"?>
<!-- Generator: Adobe Illustrator 16.0.4, SVG Export Plug-In . SVG Version: 6.00 Build 0)  -->
<!DOCTYPE svg PUBLIC "-//W3C//DTD SVG 1.1//EN" "http://www.w3.org/Graphics/SVG/1.1/DTD/svg11.dtd">
<svg version="1.1" id="Warstwa_1" xmlns="http://www.w3.org/2000/svg" xmlns:xlink="http://www.w3.org/1999/xlink" x="0px" y="0px"
	 width="16px" height="16px" viewBox="0 0 16 16" enable-background="new 0 0 16 16" xml:space="preserve">
<path fill="#FFFFFF" d="M15.897,6.729h-2.498c0.098,0.416,0.148,0.844,0.148,1.279c0,0.75-0.146,1.474-0.436,2.156
	c-0.279,0.66-0.68,1.253-1.189,1.763c-0.512,0.509-1.104,0.909-1.764,1.188C9.476,13.403,8.75,13.549,8,13.549
	s-1.477-0.146-2.158-0.434c-0.66-0.279-1.254-0.68-1.765-1.188c-0.51-0.51-0.91-1.103-1.189-1.763
	C2.6,9.482,2.453,8.758,2.453,8.008c0-0.749,0.146-1.474,0.435-2.156C3.167,5.192,3.567,4.6,4.077,4.09
	c0.511-0.509,1.104-0.91,1.765-1.188C6.523,2.613,7.25,2.468,8,2.468s1.476,0.146,2.159,0.434c0.289,0.123,0.566,0.269,0.83,0.437
	L9.423,4.902h4.908V0l-1.58,1.578C11.422,0.597,9.778,0.017,8,0.017c-4.419,0-8,3.578-8,7.992S3.581,16,8,16
	c4.418,0,8-3.578,8-7.992C16,7.573,15.965,7.146,15.897,6.729z"/>
</svg>
