<?xml version="1.0" encoding="utf-8"?>
<!-- Generator: Adobe Illustrator 16.0.4, SVG Export Plug-In . SVG Version: 6.00 Build 0)  -->
<!DOCTYPE svg PUBLIC "-//W3C//DTD SVG 1.1//EN" "http://www.w3.org/Graphics/SVG/1.1/DTD/svg11.dtd">
<svg version="1.1" id="Warstwa_1" xmlns="http://www.w3.org/2000/svg" xmlns:xlink="http://www.w3.org/1999/xlink" x="0px" y="0px"
	 width="12px" height="12px" viewBox="0 0 12 12" enable-background="new 0 0 12 12" xml:space="preserve">
<path fill="#60558F" d="M9.699,7.398c-0.652,0-1.242,0.273-1.66,0.711L4.57,6.375C4.589,6.254,4.6,6.129,4.6,6
	S4.589,5.746,4.569,5.625l3.47-1.734c0.418,0.438,1.008,0.711,1.66,0.711C10.971,4.602,12,3.57,12,2.301S10.971,0,9.699,0
	C8.43,0,7.4,1.031,7.4,2.301c0,0.129,0.011,0.25,0.029,0.375L3.961,4.41C3.542,3.973,2.953,3.699,2.3,3.699C1.03,3.699,0,4.73,0,6
	s1.03,2.301,2.3,2.301c0.653,0,1.242-0.273,1.661-0.711L7.43,9.324C7.411,9.449,7.4,9.574,7.4,9.699C7.4,10.969,8.43,12,9.699,12
	C10.971,12,12,10.969,12,9.699S10.971,7.398,9.699,7.398z"/>
</svg>
