<?xml version="1.0" encoding="utf-8"?>
<!-- Generator: Adobe Illustrator 16.0.4, SVG Export Plug-In . SVG Version: 6.00 Build 0)  -->
<!DOCTYPE svg PUBLIC "-//W3C//DTD SVG 1.1//EN" "http://www.w3.org/Graphics/SVG/1.1/DTD/svg11.dtd">
<svg version="1.1" id="Warstwa_1" xmlns="http://www.w3.org/2000/svg" xmlns:xlink="http://www.w3.org/1999/xlink" x="0px" y="0px"
	 width="22px" height="22px" viewBox="0 0 22 22" enable-background="new 0 0 22 22" xml:space="preserve">
<g>
	<g>
		<path fill="#60558F" d="M8.294,13.611l3.953,1.889v-9L8.294,8.781V13.611z M5,9.471v3.45c0,0.381,0.294,0.688,0.659,0.688h1.977
			V8.779H5.659C5.294,8.781,5,9.09,5,9.471z M14.268,8.398l-0.771,0.773c0.373,0.415,0.578,0.953,0.578,1.526
			c0,0.573-0.205,1.11-0.578,1.524l0.771,0.774c0.541-0.603,0.875-1.41,0.875-2.3C15.143,9.807,14.809,8.998,14.268,8.398z
			 M15.611,7.053l-0.774,0.774c0.332,0.364,0.597,0.784,0.781,1.246c0.209,0.514,0.312,1.061,0.312,1.624
			c0,0.564-0.104,1.11-0.312,1.624c-0.187,0.467-0.449,0.883-0.781,1.246l0.772,0.772C16.473,13.391,17,12.107,17,10.697
			C17,9.285,16.473,8.003,15.611,7.053z"/>
	</g>
</g>
</svg>
